# xmcd
#
# Track frame offsets:
#	150
#	25362
#	42087
#	59487
#	73650
#	87050
#	102487
#	124325
#	141175
#	158637
#
# Disc length: 2365 seconds
#
# Revision: 2
# Processed by: cddbd v1.4PL0 Copyright (c) Steve Scherf et al.
# Submitted via: EasyCDDAExtractor 6.0.0.1
#
DISCID=89093b0a
DTITLE=Lamont Cranston Blues Band - Featuring Pat Hayes
DYEAR=1996
DGENRE=Blues
TTITLE0=I Don't Wanna Know
TTITLE1=Cold Winds
TTITLE2=Two-Way Wishin'
TTITLE3=Love Grown Cold
TTITLE4=You Don't Even Know
TTITLE5=Stop On By
TTITLE6=I Got Designs On You
TTITLE7=Whole Lotta Lovin'
TTITLE8=Too Young To Die
TTITLE9=Fever
EXTD=
EXTT0=
EXTT1=
EXTT2=
EXTT3=
EXTT4=
EXTT5=
EXTT6=
EXTT7=
EXTT8=
EXTT9=
PLAYORDER=
